<?xml version="1.0" encoding="utf-8"?>
<!-- Generator: Adobe Illustrator 22.0.1, SVG Export Plug-In . SVG Version: 6.00 Build 0)  -->
<svg version="1.1" id="Layer_1" xmlns="http://www.w3.org/2000/svg" xmlns:xlink="http://www.w3.org/1999/xlink" x="0px" y="0px"
	 viewBox="0 0 155.9 155.9" style="enable-background:new 0 0 155.9 155.9;" xml:space="preserve">
<style type="text/css">
	.st0{fill:none;stroke:#D0D1D2;stroke-width:4.0811;stroke-miterlimit:3.8637;}
	.st1{fill:#D0D1D2;}
	.st2{fill:#231F20;stroke:#231F20;stroke-width:0.5588;stroke-miterlimit:3.8637;}
	.st3{fill-rule:evenodd;clip-rule:evenodd;fill:#FFFFFF;}
	.st4{fill:#FFFFFF;}
	.st5{fill:none;stroke:#231F20;stroke-width:0.2462;}
	.st6{fill:none;stroke:#000000;stroke-width:5.5;stroke-miterlimit:10;}
	.st7{fill:none;stroke:#000000;stroke-width:8.5;stroke-miterlimit:10;}
	.st8{fill:none;stroke:#000000;stroke-width:8;stroke-miterlimit:10;}
	.st9{fill:none;stroke:#000000;stroke-width:6.5;stroke-miterlimit:10;}
	.st10{fill:none;stroke:#000000;stroke-width:5.5;stroke-linecap:round;stroke-miterlimit:10;}
	.st11{fill:#9F5A45;}
	.st12{fill:#C79551;}
	.st13{fill:#87B0AF;}
	.st14{fill:#023D28;}
	.st15{fill:#6C8079;}
</style>
<g>
	<g>
		<path class="st11" d="M78,137.7l-1.7-1.3c-1.9-1.5-46.1-36.8-46.1-69.6C30.1,40.4,51.6,19,78,19s47.8,21.5,47.8,47.8
			c0,32.8-44.3,68.1-46.1,69.6L78,137.7z M78,24.5c-23.3,0-42.3,19-42.3,42.3c0,26.7,34.2,57,42.3,63.8c8.1-6.8,42.3-37.2,42.3-63.8
			C120.3,43.5,101.3,24.5,78,24.5z"/>
	</g>
	<g>
		<path class="st11" d="M78,93.4c-14.7,0-26.7-12-26.7-26.7s12-26.7,26.7-26.7s26.7,12,26.7,26.7S92.7,93.4,78,93.4z M78,48.4
			c-10.1,0-18.2,8.2-18.2,18.2S67.9,84.9,78,84.9c10.1,0,18.2-8.2,18.2-18.2S88,48.4,78,48.4z"/>
	</g>
</g>
</svg>
