<?xml version="1.0" encoding="utf-8"?>
<!-- Generator: Adobe Illustrator 21.1.0, SVG Export Plug-In . SVG Version: 6.00 Build 0)  -->
<svg version="1.1" id="Layer_1" xmlns="http://www.w3.org/2000/svg" xmlns:xlink="http://www.w3.org/1999/xlink" x="0px" y="0px"
	 viewBox="0 0 624.4 100" style="enable-background:new 0 0 624.4 100;" xml:space="preserve">
<style type="text/css">
	.st0{fill:#FFFFFF;}
</style>
<g>
	<g>
		<path class="st0" d="M402,57l-2.1-5.4h-6.8L391,57h-2l6.7-17h1.7l6.6,17H402z M399.3,49.9l-2-5.2c-0.3-0.7-0.5-1.5-0.8-2.4
			c-0.2,0.7-0.4,1.6-0.7,2.4l-2,5.2H399.3z"/>
		<path class="st0" d="M411.8,50v7h-2V40.1h4.6c2.1,0,3.6,0.4,4.6,1.2c1,0.8,1.5,2,1.5,3.6c0,2.2-1.1,3.7-3.4,4.5l4.6,7.6h-2.3
			l-4.1-7H411.8z M411.8,48.3h2.7c1.4,0,2.4-0.3,3.1-0.8c0.6-0.5,1-1.4,1-2.5c0-1.1-0.3-1.9-1-2.4c-0.7-0.5-1.7-0.7-3.2-0.7h-2.6
			V48.3z"/>
		<path class="st0" d="M433.1,57h-2V41.9h-5.3v-1.7h12.7v1.7h-5.3V57z"/>
		<path class="st0" d="M444.4,57V40.1h2V57H444.4z"/>
		<path class="st0" d="M464,52.5c0,1.5-0.5,2.6-1.6,3.5c-1.1,0.8-2.5,1.2-4.4,1.2c-2,0-3.5-0.3-4.6-0.8v-1.9
			c0.7,0.3,1.4,0.5,2.3,0.7c0.8,0.2,1.6,0.3,2.4,0.3c1.3,0,2.3-0.2,3-0.7c0.7-0.5,1-1.2,1-2.1c0-0.6-0.1-1.1-0.4-1.4
			c-0.2-0.4-0.6-0.7-1.2-1c-0.6-0.3-1.4-0.7-2.5-1.1c-1.6-0.6-2.7-1.2-3.4-2c-0.7-0.8-1-1.8-1-3c0-1.3,0.5-2.3,1.5-3.1
			c1-0.8,2.3-1.2,3.9-1.2c1.7,0,3.2,0.3,4.6,0.9l-0.6,1.7c-1.4-0.6-2.8-0.9-4.1-0.9c-1,0-1.9,0.2-2.4,0.7c-0.6,0.4-0.9,1.1-0.9,1.9
			c0,0.6,0.1,1.1,0.3,1.4c0.2,0.4,0.6,0.7,1.1,1c0.5,0.3,1.3,0.7,2.3,1c1.8,0.6,3,1.3,3.7,2C463.6,50.4,464,51.4,464,52.5z"/>
		<path class="st0" d="M481.5,57l-2.1-5.4h-6.8l-2.1,5.4h-2l6.7-17h1.7l6.6,17H481.5z M478.8,49.9l-2-5.2c-0.3-0.7-0.5-1.5-0.8-2.4
			c-0.2,0.7-0.4,1.6-0.7,2.4l-2,5.2H478.8z"/>
		<path class="st0" d="M502.5,57h-2.2L491,42.9h-0.1c0.1,1.7,0.2,3.2,0.2,4.6V57h-1.8V40.1h2.2l9.2,14.1h0.1c0-0.2,0-0.9-0.1-2
			c-0.1-1.1-0.1-1.9-0.1-2.4v-9.7h1.8V57z"/>
		<path class="st0" d="M527.4,41.7c-1.9,0-3.3,0.6-4.4,1.9c-1.1,1.2-1.6,2.9-1.6,5.1c0,2.2,0.5,3.9,1.6,5.1c1,1.2,2.5,1.8,4.4,1.8
			c1.2,0,2.5-0.2,4-0.6v1.7c-1.2,0.4-2.6,0.7-4.3,0.7c-2.5,0-4.4-0.8-5.8-2.3c-1.4-1.5-2-3.7-2-6.4c0-1.7,0.3-3.3,1-4.6
			c0.7-1.3,1.6-2.3,2.8-3c1.2-0.7,2.7-1.1,4.3-1.1c1.8,0,3.3,0.3,4.6,1l-0.8,1.7C529.9,42,528.7,41.7,527.4,41.7z"/>
		<path class="st0" d="M551.3,57h-2v-7.9h-8.9V57h-2V40.1h2v7.2h8.9v-7.2h2V57z"/>
		<path class="st0" d="M568.8,57h-9.4V40.1h9.4v1.7h-7.4v5.4h7v1.7h-7v6.2h7.4V57z"/>
		<path class="st0" d="M585.4,57H576V40.1h9.4v1.7H578v5.4h7v1.7h-7v6.2h7.4V57z"/>
		<path class="st0" d="M602.1,52.5c0,1.5-0.5,2.6-1.6,3.5c-1.1,0.8-2.5,1.2-4.4,1.2c-2,0-3.5-0.3-4.6-0.8v-1.9
			c0.7,0.3,1.4,0.5,2.3,0.7c0.8,0.2,1.6,0.3,2.4,0.3c1.3,0,2.3-0.2,3-0.7c0.7-0.5,1-1.2,1-2.1c0-0.6-0.1-1.1-0.4-1.4
			c-0.2-0.4-0.6-0.7-1.2-1c-0.6-0.3-1.4-0.7-2.5-1.1c-1.6-0.6-2.7-1.2-3.4-2c-0.7-0.8-1-1.8-1-3c0-1.3,0.5-2.3,1.5-3.1
			c1-0.8,2.3-1.2,3.9-1.2c1.7,0,3.2,0.3,4.6,0.9l-0.6,1.7c-1.4-0.6-2.8-0.9-4.1-0.9c-1,0-1.9,0.2-2.4,0.7c-0.6,0.4-0.9,1.1-0.9,1.9
			c0,0.6,0.1,1.1,0.3,1.4c0.2,0.4,0.6,0.7,1.1,1c0.5,0.3,1.3,0.7,2.3,1c1.8,0.6,3,1.3,3.7,2C601.8,50.4,602.1,51.4,602.1,52.5z"/>
		<path class="st0" d="M618.5,57H609V40.1h9.4v1.7H611v5.4h7v1.7h-7v6.2h7.4V57z"/>
		<path class="st0" d="M390.4,79.3c0-1,0.3-1.9,0.8-2.7s1.5-1.5,2.9-2.3c-0.7-0.7-1.1-1.3-1.3-1.7s-0.4-0.8-0.6-1.2
			c-0.1-0.4-0.2-0.8-0.2-1.3c0-1.2,0.4-2.1,1.1-2.7c0.8-0.6,1.8-1,3.2-1c1.2,0,2.2,0.3,2.9,1c0.7,0.6,1.1,1.5,1.1,2.7
			c0,0.8-0.3,1.6-0.8,2.3c-0.5,0.7-1.4,1.4-2.6,2.1l4.7,4.5c0.4-0.5,0.8-1,1-1.7c0.3-0.6,0.5-1.3,0.7-2.1h1.9
			c-0.5,2.2-1.3,3.9-2.4,5l3.5,3.4h-2.6l-2.1-2.1c-0.9,0.8-1.8,1.4-2.8,1.8c-0.9,0.4-2,0.5-3.1,0.5c-1.7,0-2.9-0.4-3.9-1.2
			C390.8,81.8,390.4,80.7,390.4,79.3z M395.6,82.1c1.9,0,3.4-0.6,4.6-1.8l-5-4.9c-0.9,0.5-1.5,1-1.8,1.3c-0.4,0.3-0.6,0.7-0.8,1.1
			c-0.2,0.4-0.3,0.8-0.3,1.3c0,0.9,0.3,1.6,0.9,2.1C393.8,81.9,394.6,82.1,395.6,82.1z M393.8,70.1c0,0.5,0.1,1,0.4,1.5
			c0.3,0.5,0.8,1.1,1.4,1.7c1-0.6,1.7-1.1,2.1-1.6c0.4-0.5,0.6-1.1,0.6-1.7c0-0.6-0.2-1.1-0.6-1.4c-0.4-0.4-0.9-0.6-1.6-0.6
			c-0.7,0-1.2,0.2-1.7,0.6C394,69,393.8,69.5,393.8,70.1z"/>
		<path class="st0" d="M423.6,83.6h-2V66.8h9.4v1.7h-7.4v6.2h7v1.7h-7V83.6z"/>
		<path class="st0" d="M437.3,83.6V66.8h2v16.9H437.3z"/>
		<path class="st0" d="M460.6,83.6h-2.2l-9.2-14.2H449c0.1,1.7,0.2,3.2,0.2,4.6v9.6h-1.8V66.8h2.2l9.2,14.1h0.1c0-0.2-0.1-0.9-0.1-2
			c-0.1-1.1-0.1-1.9-0.1-2.4v-9.7h1.8V83.6z"/>
		<path class="st0" d="M478.1,83.6h-9.4V66.8h9.4v1.7h-7.4v5.4h7v1.7h-7v6.2h7.4V83.6z"/>
		<path class="st0" d="M496.8,83.6h-2V66.8h9.4v1.7h-7.4v6.2h7v1.7h-7V83.6z"/>
		<path class="st0" d="M525.2,75.2c0,2.7-0.7,4.8-2,6.4c-1.4,1.5-3.3,2.3-5.7,2.3c-2.5,0-4.4-0.8-5.8-2.3c-1.4-1.5-2-3.7-2-6.4
			c0-2.7,0.7-4.9,2-6.4c1.4-1.5,3.3-2.3,5.8-2.3c2.4,0,4.3,0.8,5.7,2.3C524.5,70.3,525.2,72.5,525.2,75.2z M511.7,75.2
			c0,2.3,0.5,4,1.5,5.2c1,1.2,2.4,1.8,4.2,1.8c1.9,0,3.3-0.6,4.2-1.8c1-1.2,1.4-2.9,1.4-5.2c0-2.3-0.5-4-1.4-5.2
			c-1-1.2-2.4-1.8-4.2-1.8c-1.9,0-3.3,0.6-4.3,1.8C512.2,71.2,511.7,72.9,511.7,75.2z"/>
		<path class="st0" d="M547,75.2c0,2.7-0.7,4.8-2.1,6.4c-1.4,1.5-3.3,2.3-5.7,2.3c-2.5,0-4.4-0.8-5.8-2.3c-1.4-1.5-2-3.7-2-6.4
			c0-2.7,0.7-4.9,2-6.4c1.4-1.5,3.3-2.3,5.8-2.3c2.4,0,4.3,0.8,5.7,2.3C546.3,70.3,547,72.5,547,75.2z M533.6,75.2
			c0,2.3,0.5,4,1.5,5.2c1,1.2,2.4,1.8,4.2,1.8c1.9,0,3.3-0.6,4.2-1.8c1-1.2,1.4-2.9,1.4-5.2c0-2.3-0.5-4-1.4-5.2
			c-1-1.2-2.4-1.8-4.2-1.8c-1.9,0-3.3,0.6-4.3,1.8C534.1,71.2,533.6,72.9,533.6,75.2z"/>
		<path class="st0" d="M567.7,75c0,2.8-0.8,4.9-2.3,6.4s-3.7,2.2-6.5,2.2h-4.7V66.8h5.2c2.6,0,4.7,0.7,6.1,2.2
			C567,70.4,567.7,72.4,567.7,75z M565.6,75.1c0-2.2-0.6-3.9-1.7-5c-1.1-1.1-2.7-1.7-4.9-1.7h-2.8v13.5h2.4c2.3,0,4.1-0.6,5.3-1.7
			C565,79.1,565.6,77.3,565.6,75.1z"/>
	</g>
	<g>
		<g>
			<g>
				<path class="st0" d="M193.7,79.7c4,3.1,7.4,5.2,9.8,6.2c4.2,1.8,8.5,2.1,11.5,1c3.5-1.3,7.5-3.8,7.3-10.6
					c-0.1-4-4.1-11-5.6-13.9c-0.2-0.5-1.4-2.5-1.5-2.9c-0.8-1.7-1.6-2.9-2.7-5.1c-0.9-1.7-2.1-4.1-2.9-5.8c-2-4.3-2.4-6.1-0.9-7.7
					c0.9-1,2.7-1.6,4.8-1.5c1.9,0.1,5.5,0.7,7.5,2.7c0,0-0.2,0.3-0.4,0.6c-0.3,0.6-0.5,1-0.5,1.8c0,1,0.9,2.8,3.2,2.9
					c1.8,0.1,3.6-1.1,4.1-3.2c0.5-2.2-0.2-3.8-0.8-4.7c-4.4-6.2-13.3-6.3-17.1-5.5c-4.7,1-8.5,4.2-8.2,8c0.2,2.1,1.2,4,2.8,7.5
					c1,2.1,2.8,4.9,3.6,6.4c3.3,6.3,4.8,8.4,7.2,13.8c1.6,3.6,1.9,6.9,0.1,9.2c-2.3,3.1-5.5,3.4-10.8,1.7c-3.7-1.2-7.4-3.7-9.2-4.8
					C193.4,75.1,190,76.8,193.7,79.7z"/>
			</g>
			<path class="st0" d="M60.5,59.9c-1.8,5.3-16.8,20.2-33.6,21.8c-4.7,0.4-8.7-0.7-11.5-3.3c-3-2.8-4.2-7.1-3.5-12.5
				c1.5-12.5,10.9-20.3,13.7-22.4c3.7-2.8,7.4-4.3,9.7-3.9l0.2,0l0,0.2c0.5,2.4,1.7,4.6,5,4.6c2.8,0,5.7-2.1,5.7-5.7
				c0-3-2.3-5.6-6-5.9c-4.6-0.4-10.1,0.6-17.3,5.9C18.6,41.9,9.3,49,5.7,62C3.4,70.6,4.4,76.2,7,80.9c2.4,4.3,7.3,7.3,13.7,7.6
				c7,0.3,13.3-1.7,18.8-4.7c7.7-4.2,10.9-6.6,15.8-11.3c1.1-0.9,1.7-0.8,0.9,2.8c-0.4,1.9-2.1,6.4-2.6,8.1c-0.8,2.5,0.4,3,1,3.7
				c0,0,0.8,0.7,1.8,0.7c1,0,2.2-0.9,3.3-2c1-1,1.8-2,3.2-3.8c1.1-1.4,2.1-3.2,5.6-7.4c5.9-7.9,15.8-20.4,21.7-22
				c2.1,4.3-2.3,13.8-2.1,27.5c0.2,9.2,2.4,8,3.7,7.7c3.3-0.6,25-16.5,26.2-17.2c-0.5,8.4,4.8,14.2,17.4,11.9
				c7-1.9,14.2-6.2,21.6-10.8c-0.7,5.6,5.5,15.8,16,11.9c12.7-4.7,18.8-13.9,24.2-20.5c1.7-2-0.3-2.2-0.9-1.7
				C185.2,72,181.1,75.2,172.6,78c-5.2,1.7-9.2-1.1-9.6-6.6c-0.1-1.2-0.1-3.3,1-4c7.4-4.7,11.5-6.9,18.1-11.1
				c1.5-0.9,3.1-1.9,4.7-3.3c2-1.7,3.9-4.2,3.9-6.4c0-5.1-4.3-6.8-8.2-7c-1.8-0.1-5.4,0.6-8.9,2.8c-10,6.4-14.1,14.8-16.2,24.5
				c-8.3,5.3-16.9,9.9-20.9,10.6c-6.4,1.2-11.4-0.7-11.5-6.9c0-2.4,0.3-3.9,0.5-5.3c5.9-4.2,15.8-11.3,19.9-14.6
				c1.5-1.2,3.6-2.9,4.9-4.2c2-2,2.5-5.2,1.7-7.3c-1-2.5-3.3-3.9-7-3.8c-3.6,0.1-7,0.9-13,6.3c-9.1,8.1-13.6,23.7-13.6,23.7
				c-9.3,5.7-18.4,11.6-23.2,14.4c-1.8-4.5,2.4-21.6,2.8-27c0.5-6.4-0.2-7.1-1.8-7.9c-2-1-4-1.7-5.4-1c-3.4,1.7-18.4,18.2-27.2,29.4
				c-0.7,1-2.1,0.2-1.9-1.5C62.4,67,64,63,64.9,61.7c8.7-13.1,12.2-21,16-31.7c1.3-3.8,2.5-8,2.9-12.2C84.3,13.5,82,6,78.5,6
				c-3.8,0-5.7,6.6-7.1,10.8C70.3,20,63.9,49.6,60.5,59.9z M179.5,45.3c2.2-0.2,4.2,0.3,4,3.1c-0.1,2.8-9,8-19,14.4
				C167,53.5,175.1,45.8,179.5,45.3z M128.7,54.9c4.8-7.7,8.9-11.3,12.1-12.9c2.2-1,4.1-0.2,4.5,0.9c0.6,1.7-0.3,3.5-3.1,5.6
				c-2.9,2.2-10.3,8.3-16.2,12C126.6,58.9,128.2,55.7,128.7,54.9z M67.8,46.9c1.9-7,4-14.3,5.2-17.7c0.9-2.7,3-9.1,4.7-10.8
				c1.3,0-0.2,6.6-1.2,10.5c-1.7,6.4-4.4,13.2-7.9,19.8C67.5,50.8,66.9,50,67.8,46.9z"/>
			<path class="st0" d="M235.2,67.3c-1.6,1.1-2,1.9-1.9,3.8c0.4,6,3.2,8.6,7.2,8.8c7.2,0.4,17-3.8,23.7-14.4
				c0.5-0.8,2.5,0.3,1.7,2.3c-3.5,7.6-12.9,16.1-24.2,17.3c-9,0.9-15-7.6-14.5-15.5c1-11.8,8.1-26.2,19.6-30.1
				c2.1-0.7,4.8-0.8,6.8-0.1c2.9,1,4.9,2.3,5.1,7c0.1,2.1-1.1,3.9-2,5.1c-0.9,1.2-3.2,3-4.5,4C246,60.2,242.9,62.3,235.2,67.3z
				 M234.4,61c-0.8,2.3-0.1,2.6,1.8,1.2c8.4-5.9,15.8-11.6,15.9-14.8c0.1-2.1-1.3-3.1-2.3-3.1C244.3,44.3,237.6,52.3,234.4,61z"/>
			<g>
				<g>
					<g>
						<path class="st0" d="M271.5,57.3c2.2,0.1,4.4-1.4,4.8-4.2c0.1-0.3,0.4-0.6,0.8-0.6c13.1-2.9,30.1-4.4,43.4-5.3
							c0,0,0.1,0,0.1,0c0.3,0,0.7,0.2,0.9,0.4c0.2,0.3,0.3,0.7,0.1,1c-1.2,3.1-2.4,6.3-3.7,9.7c-4.3,11.3-8.8,23-12.4,35
							c-0.1,0.2,0,0.2,0,0.3c0.2,0.2,0.8,0.6,2.1,0.6c0,0,0,0,0.1,0c6,0.3,7.8-5.8,8.6-10.3c2.7-14.1,7.1-25.3,11.3-36.1l0.2-0.4
							c0.2-0.4,0.5-0.7,1-0.7c11.5-0.5,22.3-0.7,30.1-0.9c3.3-0.1,6.1-0.1,8.3-0.2c4-0.2,7.7-1.2,8.8-1.9c-2.4-0.7-7-1.6-9.3-1.8
							c-7.6-0.4-17.9-0.9-29-0.9c-1.9,0-3.8,0-5.7,0c-0.4,0-0.7-0.2-0.9-0.4c-0.2-0.3-0.3-0.7-0.2-1l0-0.1c1.4-4.3,2.9-8.8,4.2-13.4
							c0-0.1,0.1-0.2,0.1-0.2c3.4-6.1,4.2-15.1,1.8-19.1c-0.7-1.2-1.6-1.8-2.7-1.8c-1.3,0-3,0.8-4.8,2.3c0,0.4,0.1,0.8,0.2,1.2
							c0.4,2.3,0.9,5.8,0.4,10.9c-0.4,5.4-2.8,12.4-5.8,21c-0.2,0.4-0.6,0.7-1,0.7c-15.9,0.4-37.1,1.7-47.8,6.3
							c-0.2,0.1-0.4,0.1-0.7,0.1c-0.4-0.1-1.3-0.1-1.8-0.1c-2.6,0-4.7,1.7-5.6,4c-0.7,1.8-0.6,3.8,1.6,5.2
							C269.7,56.9,270.5,57.2,271.5,57.3z"/>
					</g>
				</g>
			</g>
		</g>
	</g>
</g>
</svg>
