<?xml version="1.0" encoding="UTF-8" standalone="no"?>
<svg
   xmlns:dc="http://purl.org/dc/elements/1.1/"
   xmlns:cc="http://creativecommons.org/ns#"
   xmlns:rdf="http://www.w3.org/1999/02/22-rdf-syntax-ns#"
   xmlns:svg="http://www.w3.org/2000/svg"
   xmlns="http://www.w3.org/2000/svg"
   xmlns:sodipodi="http://sodipodi.sourceforge.net/DTD/sodipodi-0.dtd"
   xmlns:inkscape="http://www.inkscape.org/namespaces/inkscape"
   viewBox="0 0 232.91251 97.462502"
   height="97.462502"
   width="232.91251"
   xml:space="preserve"
   version="1.1"
   id="svg2"
   inkscape:version="0.91 r13725"
   sodipodi:docname="bcplogolightgrey.svg"><sodipodi:namedview
     pagecolor="#ffffff"
     bordercolor="#666666"
     borderopacity="1"
     objecttolerance="10"
     gridtolerance="10"
     guidetolerance="10"
     inkscape:pageopacity="0"
     inkscape:pageshadow="2"
     inkscape:window-width="451"
     inkscape:window-height="405"
     id="namedview14"
     showgrid="false"
     inkscape:zoom="1.2365158"
     inkscape:cx="116.45625"
     inkscape:cy="48.73125"
     inkscape:window-x="824"
     inkscape:window-y="603"
     inkscape:window-maximized="0"
     inkscape:current-layer="svg2"
     showguides="false" /><metadata
     id="metadata8"><rdf:RDF><cc:Work
         rdf:about=""><dc:format>image/svg+xml</dc:format><dc:type
           rdf:resource="http://purl.org/dc/dcmitype/StillImage" /><dc:title /></cc:Work></rdf:RDF></metadata><defs
     id="defs6" /><g
     transform="matrix(1.25,0,0,-1.25,0,97.4625)"
     id="g10"><g
       transform="scale(0.1,0.1)"
       id="g12"
       style="fill:#f2f2f2"><path
         id="path14"
         style="fill:#f2f2f2;fill-opacity:1;fill-rule:nonzero;stroke:none"
         d="M 0,734.641 0,319.59 c 0,-24.902 20.1836,-45.078 45.0977,-45.078 24.914,0 45.1445,20.176 45.1445,45.078 l 0,415.051 c 0,24.906 -20.2305,45.078 -45.1445,45.078 C 20.1836,779.719 0,759.547 0,734.641" /><path
         id="path16"
         style="fill:#f2f2f2;fill-opacity:1;fill-rule:nonzero;stroke:none"
         d="m 90.2422,460.078 c 0,44.285 36.0078,80.285 80.2458,80.285 l 280.098,0 c 44.269,0 80.273,-36 80.273,-80.285 l 0,-140.488 c 0,-44.215 -36.004,-80.219 -80.273,-80.219 l -280.098,0 c -44.238,0 -80.2458,36.004 -80.2458,80.219 L 0,319.59 C 0,225.602 76.4727,149.121 170.488,149.121 l 280.098,0 c 93.984,0 170.461,76.481 170.461,170.469 l 0,140.488 c 0,94.059 -76.477,170.531 -170.461,170.531 l -280.098,0 C 76.4727,630.609 0,554.137 0,460.078" /><path
         id="path18"
         style="fill:#f2f2f2;fill-opacity:1;fill-rule:nonzero;stroke:none"
         d="m 1242.16,45.1406 0,414.9764 c 0,24.918 20.24,45.113 45.12,45.113 24.94,0 45.18,-20.195 45.18,-45.113 l 0,-414.9764 C 1332.46,20.1953 1312.22,0 1287.28,0 c -24.88,0 -45.12,20.1953 -45.12,45.1406" /><path
         id="path20"
         style="fill:#f2f2f2;fill-opacity:1;fill-rule:nonzero;stroke:none"
         d="m 1242.16,319.684 c 0,24.882 -20.19,45.058 -45.1,45.058 -24.95,0 -45.15,-20.176 -45.15,-45.058 l 45.15,-9.039 45.1,9.039" /><path
         id="path22"
         style="fill:#f2f2f2;fill-opacity:1;fill-rule:nonzero;stroke:none"
         d="m 1242.16,460.117 c 0,-24.945 -20.19,-45.137 -45.1,-45.137 -24.95,0 -45.15,20.192 -45.15,45.137 l 45.15,9.02 45.1,-9.02" /><path
         id="path24"
         style="fill:#f2f2f2;fill-opacity:1;fill-rule:nonzero;stroke:none"
         d="m 1332.46,319.684 c 0,-44.309 35.96,-80.313 80.25,-80.313 l 280.03,0 c 44.29,0 80.29,36.004 80.29,80.313 l 0,140.433 c 0,44.246 -36,80.246 -80.29,80.246 l -280.03,0 c -44.29,0 -80.25,-36 -80.25,-80.246 l -90.3,0 c 0,94.02 76.48,170.492 170.55,170.492 l 280.03,0 c 94.05,0 170.54,-76.472 170.54,-170.492 l 0,-140.433 c 0,-94.082 -76.49,-170.563 -170.54,-170.563 l -280.03,0 c -94.07,0 -170.55,76.481 -170.55,170.563" /><path
         id="path26"
         style="fill:#f2f2f2;fill-opacity:1;fill-rule:nonzero;stroke:none"
         d="m 1151.91,319.684 c 0,-44.309 -35.99,-80.313 -80.23,-80.313 l -280.039,0 c -44.328,0 -80.274,36.004 -80.274,80.313 l 0,140.433 c 0,44.246 35.946,80.246 80.274,80.246 l 280.039,0 c 44.24,0 80.23,-36 80.23,-80.246 l 90.25,0 c 0,94.02 -76.48,170.492 -170.48,170.492 l -280.039,0 c -94.09,0 -170.594,-76.472 -170.594,-170.492 l 0,-140.433 c 0,-94.082 76.504,-170.563 170.594,-170.563 l 280.039,0 c 94,0 170.48,76.481 170.48,170.563" /></g></g><path
     style="fill:none"
     d="m 14.637898,64.258752 -2.749661,-2.749662 0,-12.696966 0,-12.696967 2.749661,-2.749661 2.749662,-2.749662 21.332112,0 c 23.335708,0 23.662127,0.06069 26.144604,4.861276 1.786887,3.455457 1.704604,22.558453 -0.113671,26.390182 -2.330706,4.911598 -3.519126,5.141122 -26.61955,5.141122 l -20.743495,0 -2.749662,-2.749662 z"
     id="path3368"
     inkscape:connector-curvature="0" /><path
     style="fill:none"
     d="m 157.19642,95.470913 c -1.11819,-1.235581 -1.35525,-4.066707 -1.54061,-18.398471 -0.13124,-10.147785 -0.49262,-16.289759 -0.90142,-15.320734 -0.37529,0.889596 -1.09289,2.706555 -1.59467,4.037687 -1.42373,3.776921 -6.2254,8.567695 -10.66256,10.638349 -3.91577,1.82734 -4.72124,1.887112 -25.47481,1.890395 -12.29431,0.0019 -22.715427,-0.353277 -24.443471,-0.833197 -4.6097,-1.280228 -9.592379,-5.549335 -12.116722,-10.38148 -2.218822,-4.247313 -2.258241,-4.567153 -2.240793,-18.181507 0.01562,-12.188193 0.216273,-14.29668 1.665124,-17.497397 2.212263,-4.887206 5.183665,-7.905892 10.043613,-10.203435 3.946218,-1.865577 4.582934,-1.911814 26.433059,-1.919524 13.75989,-0.0049 23.26693,0.321226 24.66608,0.846021 6.46974,2.426669 10.65043,7.101628 13.30506,14.878088 1.00872,2.954923 1.41394,3.523586 1.46785,2.059918 0.10533,-2.859454 2.97795,-8.882111 5.54552,-11.626602 1.19697,-1.279453 3.99594,-3.186508 6.21993,-4.237901 3.94729,-1.866081 4.5789,-1.911812 26.51169,-1.919524 24.14331,-0.0085 25.20159,0.142643 30.77696,4.395181 1.48523,1.132839 3.75991,3.971894 5.05484,6.30901 l 2.35443,4.249302 0,14.557032 c 0,13.384912 -0.14081,14.817503 -1.74876,17.791928 -2.32405,4.299075 -6.33156,8.031308 -10.78646,10.045532 -3.37492,1.525926 -5.22529,1.644155 -25.47481,1.627707 -16.14829,-0.01312 -22.62544,-0.299628 -24.86826,-1.100027 l -3.03271,-1.08229 0,8.800665 c 0,7.722367 -0.19818,8.998843 -1.61745,10.418114 -2.01328,2.01328 -5.78966,2.091987 -7.54065,0.15716 z M 138.48614,66.534378 c 3.27048,-1.551947 4.91906,-3.906627 5.67208,-8.101513 0.75641,-4.213801 2.44805,-5.981483 5.72415,-5.981483 1.96041,0 3.03831,0.536855 3.98799,1.986245 0.71579,1.092435 1.03188,2.422405 0.70241,2.955489 -0.37898,0.613207 -0.25605,0.757274 0.33466,0.392198 1.16841,-0.722118 1.3128,-18.273516 0.15033,-18.273516 -0.43084,0 -0.58466,0.517751 -0.34183,1.150556 0.60288,1.571074 -2.49935,4.510512 -4.76031,4.510512 -2.69662,0 -5.43142,-2.212389 -5.29453,-4.283149 0.20145,-3.047555 -2.34892,-7.736924 -5.14798,-9.465579 -2.54447,-1.571424 -3.72746,-1.642377 -23.89181,-1.432976 l -21.214798,0.22031 -2.642563,2.641641 -2.642562,2.64164 -0.259359,12.047164 c -0.291607,13.545094 0.32416,15.870715 4.948785,18.690513 2.38033,1.451373 4.176828,1.578905 22.280607,1.581684 16.30809,0.0025 20.15598,-0.217382 22.39473,-1.279736 z m 77.6375,0 c 4.87934,-2.315397 5.58639,-4.299838 5.90027,-16.559915 0.3233,-12.627831 -0.52751,-15.866433 -4.87329,-18.550325 -2.54448,-1.571424 -3.72747,-1.642377 -23.89182,-1.432976 l -21.2148,0.22031 -2.64256,2.641641 -2.64256,2.64164 -0.25936,12.047164 c -0.29161,13.545094 0.32416,15.870715 4.94879,18.690513 2.38033,1.451373 4.17682,1.578905 22.2806,1.581684 16.3081,0.0025 20.15599,-0.217382 22.39473,-1.279736 z"
     id="path3370"
     inkscape:connector-curvature="0" /><path
     style="fill:none"
     d="m 157.19642,95.470913 c -1.11819,-1.235581 -1.35525,-4.066707 -1.54061,-18.398471 -0.13124,-10.147785 -0.49262,-16.289759 -0.90142,-15.320734 -0.37529,0.889596 -1.09289,2.706555 -1.59467,4.037687 -1.42373,3.776921 -6.2254,8.567695 -10.66256,10.638349 -3.91577,1.82734 -4.72124,1.887112 -25.47481,1.890395 -12.29431,0.0019 -22.715427,-0.353277 -24.443471,-0.833197 -4.6097,-1.280228 -9.592379,-5.549335 -12.116722,-10.38148 -2.218822,-4.247313 -2.258241,-4.567153 -2.240793,-18.181507 0.01562,-12.188193 0.216273,-14.29668 1.665124,-17.497397 2.212263,-4.887206 5.183665,-7.905892 10.043613,-10.203435 3.946218,-1.865577 4.582934,-1.911814 26.433059,-1.919524 13.75989,-0.0049 23.26693,0.321226 24.66608,0.846021 6.46974,2.426669 10.65043,7.101628 13.30506,14.878088 1.00872,2.954923 1.41394,3.523586 1.46785,2.059918 0.10533,-2.859454 2.97795,-8.882111 5.54552,-11.626602 1.19697,-1.279453 3.99594,-3.186508 6.21993,-4.237901 3.94729,-1.866081 4.5789,-1.911812 26.51169,-1.919524 24.14331,-0.0085 25.20159,0.142643 30.77696,4.395181 1.48523,1.132839 3.75991,3.971894 5.05484,6.30901 l 2.35443,4.249302 0,14.557032 c 0,13.384912 -0.14081,14.817503 -1.74876,17.791928 -2.32405,4.299075 -6.33156,8.031308 -10.78646,10.045532 -3.37492,1.525926 -5.22529,1.644155 -25.47481,1.627707 -16.14829,-0.01312 -22.62544,-0.299628 -24.86826,-1.100027 l -3.03271,-1.08229 0,8.800665 c 0,7.722367 -0.19818,8.998843 -1.61745,10.418114 -2.01328,2.01328 -5.78966,2.091987 -7.54065,0.15716 z M 138.48614,66.534378 c 3.27048,-1.551947 4.91906,-3.906627 5.67208,-8.101513 0.75641,-4.213801 2.44805,-5.981483 5.72415,-5.981483 1.96041,0 3.03831,0.536855 3.98799,1.986245 0.71579,1.092435 1.03188,2.422405 0.70241,2.955489 -0.37898,0.613207 -0.25605,0.757274 0.33466,0.392198 1.16841,-0.722118 1.3128,-18.273516 0.15033,-18.273516 -0.43084,0 -0.58466,0.517751 -0.34183,1.150556 0.60288,1.571074 -2.49935,4.510512 -4.76031,4.510512 -2.69662,0 -5.43142,-2.212389 -5.29453,-4.283149 0.20145,-3.047555 -2.34892,-7.736924 -5.14798,-9.465579 -2.54447,-1.571424 -3.72746,-1.642377 -23.89181,-1.432976 l -21.214798,0.22031 -2.642563,2.641641 -2.642562,2.64164 -0.259359,12.047164 c -0.291607,13.545094 0.32416,15.870715 4.948785,18.690513 2.38033,1.451373 4.176828,1.578905 22.280607,1.581684 16.30809,0.0025 20.15598,-0.217382 22.39473,-1.279736 z m 77.6375,0 c 4.87934,-2.315397 5.58639,-4.299838 5.90027,-16.559915 0.3233,-12.627831 -0.52751,-15.866433 -4.87329,-18.550325 -2.54448,-1.571424 -3.72747,-1.642377 -23.89182,-1.432976 l -21.2148,0.22031 -2.64256,2.641641 -2.64256,2.64164 -0.25936,12.047164 c -0.29161,13.545094 0.32416,15.870715 4.94879,18.690513 2.38033,1.451373 4.17682,1.578905 22.2806,1.581684 16.3081,0.0025 20.15599,-0.217382 22.39473,-1.279736 z"
     id="path3372"
     inkscape:connector-curvature="0" /><path
     style="fill:none"
     d="M 14.013156,77.143205 C 9.3049089,75.464914 5.2731945,71.802001 2.7704843,66.928958 L 0.5268854,62.560432 0.54057354,33.112227 C 0.55580868,0.33583709 0.49673067,0.69304719 5.9022914,0.69304719 c 4.2878356,0 5.1772216,2.10776341 5.1772216,12.26953981 l 0,8.674751 2.804558,-1.17182 c 4.08415,-1.706467 46.108423,-1.706578 50.19252,-1.33e-4 4.621716,1.931077 8.069165,5.045814 10.5595,9.540405 l 2.354426,4.249302 0,14.557032 c 0,13.384912 -0.140808,14.817503 -1.748761,17.791928 -2.324049,4.299075 -6.33156,8.031308 -10.78646,10.045532 -3.37492,1.525926 -5.225287,1.644155 -25.474806,1.627707 C 22.501093,78.263906 16.376731,77.98572 14.013156,77.143205 Z M 60.848637,66.534378 C 65.727975,64.218981 66.435028,62.23454 66.748907,49.974463 67.072201,37.346632 66.221398,34.10803 61.875608,31.424138 59.331141,29.852714 58.148148,29.781761 37.983795,29.991162 l -21.214795,0.22031 -2.642563,2.641641 -2.642562,2.64164 -0.259359,12.047164 c -0.291607,13.545094 0.32416,15.870715 4.948785,18.690513 2.38033,1.451373 4.176828,1.578905 22.280606,1.581684 16.308093,0.0025 20.155985,-0.217382 22.39473,-1.279736 z"
     id="path3374"
     inkscape:connector-curvature="0" /><path
     style="fill:none"
     d="M 14.013156,77.143205 C 9.3049089,75.464914 5.2731945,71.802001 2.7704843,66.928958 L 0.5268854,62.560432 0.54057354,33.112227 C 0.55580868,0.33583709 0.49673067,0.69304719 5.9022914,0.69304719 c 4.2878356,0 5.1772216,2.10776341 5.1772216,12.26953981 l 0,8.674751 2.804558,-1.17182 c 4.08415,-1.706467 46.108423,-1.706578 50.19252,-1.33e-4 4.621716,1.931077 8.069165,5.045814 10.5595,9.540405 l 2.354426,4.249302 0,14.557032 c 0,13.384912 -0.140808,14.817503 -1.748761,17.791928 -2.324049,4.299075 -6.33156,8.031308 -10.78646,10.045532 -3.37492,1.525926 -5.225287,1.644155 -25.474806,1.627707 C 22.501093,78.263906 16.376731,77.98572 14.013156,77.143205 Z M 60.848637,66.534378 C 65.727975,64.218981 66.435028,62.23454 66.748907,49.974463 67.072201,37.346632 66.221398,34.10803 61.875608,31.424138 59.331141,29.852714 58.148148,29.781761 37.983795,29.991162 l -21.214795,0.22031 -2.642563,2.641641 -2.642562,2.64164 -0.259359,12.047164 c -0.291607,13.545094 0.32416,15.870715 4.948785,18.690513 2.38033,1.451373 4.176828,1.578905 22.280606,1.581684 16.308093,0.0025 20.155985,-0.217382 22.39473,-1.279736 z"
     id="path3376"
     inkscape:connector-curvature="0" /></svg>