<?xml version="1.0" encoding="utf-8"?>
<!-- Generator: Adobe Illustrator 21.1.0, SVG Export Plug-In . SVG Version: 6.00 Build 0)  -->
<svg version="1.1" id="Layer_1" xmlns="http://www.w3.org/2000/svg" xmlns:xlink="http://www.w3.org/1999/xlink" x="0px" y="0px"
	 viewBox="0 0 110 100" style="enable-background:new 0 0 110 100;" xml:space="preserve">
<style type="text/css">
	.st0{fill:#FFFFFF;}
</style>
<g>
	<g>
		<g>
			<g>
				<g>
					<path class="st0" d="M30.6,64.8c1.1,0,2.2-0.7,2.4-2.1c0-0.2,0.2-0.3,0.4-0.3c6.5-1.4,14.8-2.2,21.4-2.6c0,0,0,0,0,0
						c0.2,0,0.3,0.1,0.4,0.2c0.1,0.1,0.1,0.3,0.1,0.5c-0.6,1.5-1.2,3.1-1.8,4.8c-2.1,5.6-4.4,11.3-6.1,17.3c0,0.1,0,0.1,0,0.2
						c0.1,0.1,0.4,0.3,1,0.3c0,0,0,0,0,0c3,0.2,3.9-2.8,4.3-5.1c1.4-7,3.5-12.5,5.6-17.8l0.1-0.2c0.1-0.2,0.3-0.3,0.5-0.3
						c5.7-0.2,11-0.3,14.9-0.4c1.6,0,3-0.1,4.1-0.1c2-0.1,3.8-0.6,4.3-1c-1.2-0.3-3.4-0.8-4.6-0.9c-3.8-0.2-8.8-0.4-14.3-0.4
						c-0.9,0-1.9,0-2.8,0c-0.2,0-0.3-0.1-0.4-0.2c-0.1-0.1-0.1-0.3-0.1-0.5l0-0.1c0.7-2.1,1.4-4.3,2.1-6.6c0,0,0-0.1,0-0.1
						c1.7-3,2.1-7.4,0.9-9.4c-0.3-0.6-0.8-0.9-1.3-0.9c-0.7,0-1.5,0.4-2.4,1.1c0,0.2,0.1,0.4,0.1,0.6c0.2,1.1,0.4,2.8,0.2,5.4
						c-0.2,2.7-1.4,6.1-2.9,10.4c-0.1,0.2-0.3,0.4-0.5,0.4C48.3,57,37.9,57.7,32.6,60c-0.1,0-0.2,0.1-0.3,0c-0.2,0-0.7-0.1-0.9-0.1
						c-1.3,0-2.3,0.8-2.7,2c-0.3,0.9-0.3,1.9,0.8,2.6C29.7,64.6,30.1,64.8,30.6,64.8z"/>
				</g>
			</g>
		</g>
	</g>
	<g>
		<path class="st0" d="M80.2,25.2c-1-12.9-11.8-23-24.9-23c-13.1,0-23.9,10.1-24.9,23h-27v71.5h103.8V25.2H80.2z M55.3,6.2
			c10.9,0,19.9,8.4,20.9,19H34.4C35.4,14.6,44.4,6.2,55.3,6.2z M103.2,92.8H7.5V29.2h95.8V92.8z"/>
	</g>
</g>
</svg>
